<?xml version="1.0" encoding="utf-8"?>
<!-- Generator: Adobe Illustrator 19.2.1, SVG Export Plug-In . SVG Version: 6.00 Build 0)  -->
<svg version="1.1" id="Calque_1" xmlns="http://www.w3.org/2000/svg" xmlns:xlink="http://www.w3.org/1999/xlink" x="0px" y="0px"
	 viewBox="0 0 300 284.7" style="enable-background:new 0 0 300 284.7;" xml:space="preserve">
<style type="text/css">
	.st0{display:none;}
	.st1{display:inline;}
	.st2{fill:#0079E1;}
	.st3{display:inline;fill:#0078E0;}
	.st4{display:inline;fill:#FFB000;}
	.st5{display:inline;fill:#0F4574;}
	.st6{fill:#FFB000;}
	.st7{fill:#0078E0;}
	.st8{fill:#0F4574;}
	.st9{fill:#246EAD;}
	.st10{fill:none;}
	.st11{fill:#FFFFFF;}
	.st12{fill:#FFA300;}
</style>
<g id="Calque_1_1_" class="st0">
</g>
<g id="Affordable" class="st0">
	<g class="st1">
		<path class="st2" d="M278.5,185.2c-2.6-1.3-18.8,2.1-18.8,2.1c-2.3-16-35-35.5-35-35.5c-3.9-3.6,6.4-23.7,6.4-23.7
			c-20.3-1-32.4,18.3-32.4,18.3c-14.1-14.4-26-25.6-26-25.6l-10.9,22.8c-4.1-3.1-20.9-7-36.3-7c-15.5,0-32.5,5.7-32.5,5.7
			l-12.1-12.6c-16.7,1-39.2,25-39.2,25c-12.6-9.8-1.3-15.7-1.3-15.7c-22.7,3.9-4.1,23.9-4.1,23.9c-27.8,44.3,4.1,69.5,4.1,69.5
			c-3.6,26.3,15,52.4,15,52.4l31.6-0.5c-4.1-8.7-0.6-21.3-0.6-21.3c12.1,4.9,68.3,4,68.3,4c0.1,2.3,11.3,17.4,11.3,17.4h32.5
			c0,0-1.4-8.9-2.1-13.7c-0.7-4.8,1.3-12.1,1.3-12.1c62.8-11.8,80.7-50,80.7-50C280.8,203,278.5,185.2,278.5,185.2z M230.3,191.4
			c-5.8,0-10.6-4.7-10.6-10.6c0-5.8,4.7-10.6,10.6-10.6s10.6,4.7,10.6,10.6C240.9,186.7,236.2,191.4,230.3,191.4z"/>
	</g>
	<circle class="st3" cx="137.5" cy="25.3" r="25.3"/>
	<circle class="st4" cx="202.6" cy="61.6" r="34"/>
	<path class="st5" d="M165.2,102.5c0,11.8-5,22.4-12.9,29.8c0,0-17.2-4.4-28.1-4.4c-10.8,0-28,4.4-28,4.4c-8-7.5-13-18.1-13-29.9
		c0-22.6,18.3-41,41-41S165.2,79.9,165.2,102.5z"/>
</g>
<g id="Effective" class="st0">
	<g class="st1">
		<path class="st6" d="M16.6,152.1c0.1-0.3,0.2-0.6,0.2-0.8c0.4-3.7,0.6-7.5,1.1-11.2c0.9-7.4,2.5-14.6,4.8-21.7
			C29.1,98.1,39.9,80.5,55,65.6c17.2-17,37.7-28.2,61.3-33.6c5.4-1.2,10.8-2.1,16.3-2.6c4.1-0.4,8.3-0.6,12.4-0.6
			c20.4,0.1,39.7,4.7,57.9,13.9c0.2,0.1,0.5,0.3,0.6,0.3c0,1.1-0.1,2.2,0,3.2c0.2,2.8,0.4,5.6,0.6,8.4c0.2,2.1,0.3,4.1,0.5,6.2
			c0.1,1.6,0.2,3.2,0.4,4.7c0,0.4-0.1,0.8-0.4,1.1c-3.3,3.3-6.6,6.5-9.8,9.8c-0.1,0.1-0.2,0.2-0.3,0.3
			c-18.7-11.3-38.9-15.9-60.6-13.4c-15.3,1.7-29.3,7-42,15.7c-12.3,8.4-22,19-29.2,31.9c-21.8,38.9-13.5,88.4,21.6,118
			c34.6,29.2,85.2,29.5,120.3,0.8c35.5-29.1,45.9-81.1,20.4-122.4c0.2-0.2,0.4-0.4,0.6-0.6c3.5-3.5,7-7,10.5-10.5
			c0.4-0.4,0.9-0.6,1.5-0.6c4.3,0.4,8.5,0.7,12.8,1c2,0.1,4,0.2,6,0.2c0.5,0,1.1-0.1,1.6-0.1c0.1,0.2,0.3,0.4,0.4,0.6
			c5.6,10.6,9.6,21.8,12,33.5c1.1,5.2,1.8,10.5,2.2,15.9c0.4,5,0.5,10.1,0.3,15.1c-0.2,5.2-0.7,10.4-1.5,15.5
			c-1.7,10.5-4.6,20.6-8.8,30.3c-12.6,28.6-32.9,50-60.8,64c-11,5.6-22.6,9.3-34.8,11.4c-5.9,1-11.8,1.6-17.7,1.8
			c-0.4,0-0.8,0.1-1.1,0.2c-2,0-4.1,0-6.1,0c-0.4-0.1-0.9-0.2-1.3-0.2c-4.8-0.1-9.5-0.6-14.2-1.2c-7.8-1.1-15.4-3-22.9-5.5
			c-38.6-13.2-68.8-44.2-81-83.3c-2.2-7.1-3.8-14.4-4.7-21.9c-0.4-3.5-0.6-7-0.9-10.5c0-0.3-0.1-0.6-0.2-0.8
			C16.6,158.4,16.6,155.2,16.6,152.1z"/>
		<path class="st7" d="M253.9,0c0.1,0.1,0.1,0.1,0.2,0.2c1.4,0.5,2,1.5,2.1,3c0.2,3.4,0.5,6.9,0.8,10.3c0.3,4,0.6,8,0.9,12
			c0,0.1,0.1,0.2,0.1,0.5c0.3-0.3,0.5-0.5,0.8-0.7c2.6-2.6,5.2-5.1,7.7-7.7c3.4-3.5,9.2-3.7,12.8,0c1.7,1.7,3.4,3.4,5.1,5.1
			c3.6,3.6,3.5,9.1-0.1,12.7c-2.2,2.2-4.4,4.4-6.6,6.6c-0.2,0.2-0.5,0.5-0.8,0.9c0.8,0.1,1.4,0.2,2,0.2c5.8,0.4,11.6,0.9,17.3,1.3
			c0.5,0,1,0.1,1.5,0.1c1.2,0.1,2.6,1.2,2.6,2.7c0,1.1-0.3,1.9-1.1,2.6c-11.3,11.2-22.5,22.5-33.7,33.7c-3,3-6.6,4.6-10.9,4.5
			c-2.4-0.1-4.8-0.3-7.2-0.4c-2.7-0.2-5.3-0.4-8-0.6c-1.9-0.1-3.8-0.3-5.6-0.4c-0.5,0-0.8,0.1-1.2,0.4c-1,1-1.9,2-2.9,2.9
			c-21.2,21.2-42.4,42.4-63.6,63.7c-1.4,1.4-3.1,2.2-5.2,2.4c-2.5,0.1-5,0.3-7.5,0.4c-2.9,0.1-5.2-0.9-6.9-3.3
			c-0.8-1.2-1.3-2.6-1.2-4c0.1-2.2,0.3-4.4,0.5-6.6c0-0.4,0.1-0.8,0.1-1.3c0.1-2,0.9-3.8,2.3-5.2c2.6-2.5,5.1-5.1,7.7-7.7
			c7.6-7.6,15.2-15.2,22.8-22.8c11.6-11.6,23.2-23.3,34.9-34.9c0.6-0.6,0.8-1.1,0.7-1.9c-0.5-5.4-0.8-10.7-1.3-16.1
			c-0.2-2.1-0.3-4.2-0.4-6.3c-0.1-4.4,1.4-8.1,4.5-11.2c11.3-11.3,22.5-22.5,33.8-33.8c0.5-0.5,1.1-0.8,1.7-1.2
			C253,0,253.4,0,253.9,0z"/>
		<path class="st8" d="M201.9,130.3c10.5,21.1,8.5,54-16.9,75.1c-24.7,20.5-61,19.1-84-3.3c-23.6-22.9-25.5-59.8-5.2-84.8
			c20.8-25.7,53.8-28.3,75.6-17.5c-0.2,0.2-0.3,0.4-0.5,0.6c-7.6,7.7-15.3,15.3-22.9,23c-0.4,0.4-0.8,0.5-1.4,0.5
			c-5.2-0.3-10.1,0.6-14.8,2.7c-10.6,4.8-17.2,13-19.3,24.4c-3.4,18.3,8.7,34.8,25.8,38.3c17.5,3.6,34.4-7.1,38.8-24.3
			c0.8-3.2,1.1-6.5,0.9-9.9c0-0.5,0.1-0.9,0.5-1.3c7.7-7.7,15.3-15.3,23-23C201.5,130.6,201.7,130.5,201.9,130.3z"/>
	</g>
</g>
<g id="Automated" class="st0">
	<g class="st1">
		<g>
			<path class="st9" d="M135.1,158.1c6.1-3.8,11.6-8.4,16.3-13.7l17.2,9.9l15.6-27.1l-17.1-9.9c2.2-6.6,3.5-13.7,3.7-21l19.5-3.4
				l-5.4-30.8l-19.5,3.4c-2.7-6.7-6.3-12.9-10.7-18.4L167.4,32l-23.9-20.1l-12.7,15.2c-6.2-3.3-12.9-5.8-20-7.3V0H79.5v19.8
				c-7.1,1.5-13.8,4-20,7.3L46.7,11.9L22.8,32l12.7,15.2c-4.4,5.6-8,11.8-10.7,18.4L5.4,62.2L-0.1,93l19.5,3.4
				c0.2,7.3,1.5,14.4,3.7,21L6,127.3l15.6,27.1l17.2-9.9c4.8,5.3,10.2,9.9,16.3,13.7l-6.8,18.6l29.4,10.7l6.8-18.6
				c3.5,0.5,7,0.8,10.7,0.8s7.2-0.3,10.7-0.8l6.8,18.6l29.4-10.7L135.1,158.1z M95.1,133.8c-22,0-39.9-17.9-39.9-39.9
				S73.1,54,95.1,54S135,71.9,135,93.9S117.1,133.8,95.1,133.8z"/>
			<path class="st6" d="M269.4,186.3l-13.5,4.4c-2.6-4.5-5.7-8.5-9.4-12l7.5-12l-19-11.9l-7.5,12c-4.7-1.7-9.7-2.8-14.9-3.2l-2-14
				l-22.2,3.1l2,14c-4.9,1.8-9.4,4.2-13.5,7.2l-10.5-9.5l-15,16.6l10.5,9.5c-2.6,4.4-4.5,9.1-5.7,14.1l-14.1-0.5l-0.8,22.3l14.1,0.5
				c0.9,5.2,2.5,10,4.7,14.5l-11.2,8.7l13.7,17.6l11.2-8.7c3.9,3.3,8.2,6,12.9,8.1l-3,13.9l21.9,4.7l3-13.8c2.5,0,5.1-0.2,7.6-0.5
				c2.6-0.4,5.1-0.9,7.5-1.6l6.6,12.5l19.8-10.5l-6.6-12.5c3.9-3.3,7.4-7.1,10.2-11.3l13.1,5.3l8.4-20.7l-13.1-5.3
				c0.9-4.9,1.1-10.1,0.5-15.3l13.5-4.4L269.4,186.3z M212.8,245.9c-15.6,2.2-30.1-8.7-32.2-24.3c-2.2-15.6,8.7-30.1,24.3-32.2
				c15.6-2.2,30.1,8.7,32.2,24.3C239.4,229.3,228.4,243.8,212.8,245.9z"/>
			<path class="st8" d="M299.5,104.1l0.5-17.6l-11.2-0.3c-0.7-3.9-2-7.7-3.8-11.4l8.8-6.9L282.9,54l-8.8,6.9
				c-3.1-2.6-6.6-4.7-10.3-6.3l2.3-11L248.9,40l-2.3,10.9c-4,0-8,0.6-11.9,1.7l-5.3-9.8l-15.5,8.4l5.3,9.8c-3.1,2.6-5.8,5.7-8,9
				l-10.4-4.1l-6.5,16.4l10.4,4.1c-0.7,3.9-0.8,8-0.4,12l-10.6,3.5l5.5,16.8l10.6-3.5c2.1,3.6,4.6,6.7,7.5,9.5l-5.9,9.5l15,9.3
				l5.9-9.5c3.8,1.4,7.8,2.2,11.8,2.4l1.6,11.1l17.5-2.6l-1.6-11.1c1.9-0.7,3.7-1.5,5.5-2.5s3.5-2.1,5.1-3.2l8.3,7.4l11.7-13.2
				l-8.4-7.4c2-3.5,3.5-7.3,4.4-11.2L299.5,104.1z M257.5,113.5c-10.9,5.9-24.7,1.8-30.5-9.2c-5.9-10.9-1.8-24.7,9.2-30.5
				c10.9-5.9,24.6-1.8,30.5,9.2C272.5,94,268.4,107.6,257.5,113.5z"/>
		</g>
	</g>
</g>
<g id="Easy">
	<g>
		<title>P2-Remote-EasyToUse-2</title>
		<rect x="-73.1" y="-12.2" class="st10" width="463.7" height="309.1"/>
		<path class="st11" d="M119.7,124.2c0-5.8,0-11.7,0-17.7c-19.2-12.9-24.3-38.9-11.4-58.1s38.9-24.3,58.1-11.4s24.3,38.9,11.4,58.1
			c-3.5,5.2-8,9.5-13.4,12.7c0,0.9,0,1.9,0,2.8c2.8-0.9,5.8-1.1,8.8-0.7c3.3,0.5,6.4,1.8,9.1,3.7c23.1-21.7,24.1-58,2.4-81.1
			s-58-24.1-81.1-2.4s-24.1,58-2.4,81.1C106.5,116.6,112.8,121.1,119.7,124.2z"/>
		<path class="st12" d="M127.4,105c0-9.7,0-19.7,0-30.1c-0.1-2,0.1-3.9,0.5-5.8c1.8-8.5,8.7-14.1,16.3-13.5
			c8.2,0.6,14.8,8,14.9,16.7c0.1,7.8,0.1,15.7,0.1,23.3c0,2,0,3.9,0,5.9c2-0.6,4.1-0.8,6.3-0.5c0.3,0,0.6,0.1,0.9,0.2
			c15.1-12.4,17.2-34.6,4.9-49.6c-12.4-15.1-34.6-17.3-49.7-4.9s-17.2,34.6-4.9,49.6C119.7,99.9,123.3,102.9,127.4,105z"/>
		<path class="st9" d="M119.7,124.2c0-5.8,0-11.7,0-17.7c-19.2-12.9-24.3-38.9-11.4-58.1s38.9-24.3,58.1-11.4s24.3,38.9,11.4,58.1
			c-3.5,5.2-8,9.5-13.4,12.7c0,0.9,0,1.9,0,2.8c2.8-0.9,5.8-1.1,8.8-0.7c3.3,0.5,6.4,1.8,9.1,3.7c23.1-21.7,24.1-58,2.4-81.1
			s-58-24.1-81.1-2.4s-24.1,58-2.4,81.1C106.5,116.6,112.8,121.1,119.7,124.2z"/>
		<path class="st8" d="M131.1,268.5c-4.1,0-7.8-2.2-9.9-5.8c-18-28.4-31.4-49.6-42.3-66.5c-5.4-8.1-5.2-19,0.7-26.9
			c3-4.2,7.7-6.9,12.9-7.5c0.6-0.1,1.1-0.1,1.6-0.1c4.7,0,9.1,1.8,12.5,5.1c6.1,5.7,10.2,9.6,14.2,13.4c1.8,1.7,2.2,1.7,2.3,1.7
			c0,0,0.1,0,0.3-0.1c0.1-0.1,0.5-0.2,0.5-3.3V77.4c-0.1-2.5,0.1-5,0.6-7.4c2-9.6,9.7-16.6,18.3-16.6c0.5,0,0.9,0,1.4,0.1
			c10,0.8,17.9,9.7,18,20.4c0.1,10.4,0.1,21,0.1,31.2v10.7c2.3-1.1,4.8-1.7,7.4-1.7c0.8,0,1.6,0.1,2.4,0.2l0.1,0
			c8.4,1.5,14.9,8.2,16.2,16.6c0,0.3,0.1,0.5,0.1,0.8c2.4-1.2,5-1.8,7.6-1.8c1.3,0,2.5,0.1,3.7,0.4c7.6,1.4,13.6,7.4,15,15.1
			c0.1,0.6,0.3,1.3,0.4,2c2.4-1.3,5.1-1.9,7.9-1.9c1.5,0,2.9,0.2,4.4,0.6c8.1,2,14.4,10.4,14.8,19.5c0.9,25.5,0.6,58.9-9.2,91.7
			c-0.2,0.6-0.3,1.1-0.4,1.5c-0.1,0.5-0.3,1-0.4,1.5c-1.7,6.5-4,8.3-10.6,8.3c-0.3,0-0.6,0-0.9,0h-88.9
			C131.5,268.5,131.3,268.5,131.1,268.5z M221,257.6l0.1,0c0.2,0,0.4,0,0.6,0c0-0.1,0.1-0.3,0.1-0.4c0.2-0.9,0.5-2,0.9-3.4
			c9.3-31.4,9.5-63.7,8.7-88.3c-0.1-4.2-3.2-8.5-6.6-9.3c-0.6-0.1-1.2-0.2-1.8-0.2c-2.7,0-5.1,1.7-7.2,5.3c-0.5,0.8-1.1,1.4-1.8,1.9
			l-7.8,7.3l-0.8-11.3c-0.1-1.4-0.2-2.6-0.2-4c0-2.5-0.2-5.1-0.7-7.9c-0.6-3.4-3.1-6-6.5-6.5c-0.6-0.1-1.1-0.2-1.6-0.2
			c-1.5,0-3.9,0.4-6.3,4.1l0,0.1l-0.1,0.1c-0.1,0.1-0.2,0.3-0.3,0.4c-0.2,0.3-0.5,0.7-0.7,1l-9.1,11.7l-1-14.3
			c-0.1-1.4-0.2-2.6-0.2-3.9c-0.1-2.7-0.3-5-0.6-7.2c-0.6-3.9-3.5-7-7.4-7.7c-0.2,0-0.5-0.1-0.8-0.1c-2.5,0-5,1.9-7,5.3
			c-0.2,0.3-0.4,0.7-0.7,1.1l-10.4,15.6v-41.8c0-10.2,0-20.7-0.1-31.2c-0.1-5.1-3.6-9.3-8.1-9.7c-0.1,0-0.2,0-0.3,0
			c-3.4,0-6.8,3.5-7.9,8.1c-0.3,1.4-0.4,3-0.4,5.1v101.3c0,2.7,0,9.9-6.8,13.1c-1.5,0.7-3.1,1-4.6,1c-5,0-8.7-3.6-9.8-4.8
			c-3.6-3.5-7.2-6.9-11.3-10.7l-2.7-2.5c-1.7-1.4-3.5-2.1-5.3-2.1h-0.7c-2.1,0.3-3.9,1.5-5.2,3.2c-3.1,4.3-3.3,10.1-0.3,14.5
			c13.4,20.9,28.5,44.5,42.3,66.6l0.1,0.2l0.1,0.2c0.1,0.3,0.3,0.4,0.6,0.4c0,0,0.1,0,0.1,0l0.2,0l0.2,0c9.1,0,18.3-0.1,27.4-0.1
			c9.1,0,18.3,0,27.4,0.1h34.5H221z"/>
	</g>
</g>
</svg>
