<?xml version="1.0" encoding="utf-8"?>
<!-- Generator: Adobe Illustrator 19.2.1, SVG Export Plug-In . SVG Version: 6.00 Build 0)  -->
<svg version="1.1" id="Calque_1" xmlns="http://www.w3.org/2000/svg" xmlns:xlink="http://www.w3.org/1999/xlink" x="0px" y="0px"
	 viewBox="0 0 1324 364" style="enable-background:new 0 0 1324 364;" xml:space="preserve">
<style type="text/css">
	.st0{opacity:0.5;enable-background:new    ;}
	.st1{fill:#FFFFFF;}
	.st2{fill:#FFA300;}
</style>
<path class="st0" d="M87.5,195.3l-4.4,28.6H63.6L84.9,93.5h25.5l22.7,130.4h-20l-4.4-28.6H87.8L87.5,195.3L87.5,195.3z M97.7,125
	l-7.6,52.1h15.4L97.7,125z"/>
<path class="st0" d="M213.8,223.9h-45.3v-113h17.2V208h28.1V223.9L213.8,223.9z"/>
<path class="st0" d="M288.8,223.9h-45v-113H261V208h27.9v15.9H288.8z"/>
<path class="st0" d="M358.6,125.8c-0.3-4.2-1.3-8.6-3.4-12.2c-1.8-2.6-4.7-3.9-7.8-3.6c-3.1-0.3-6,1-8.1,3.4c-2.1,2.6-3.1,6-2.9,9.4
	c0,2.1,0.3,4.2,0.8,6.2c0.8,2.1,1.6,4.2,2.9,6c1.6,2.3,3.4,4.4,5.2,6.5l8.6,8.3c4.9,4.7,9.1,8.9,12.5,12.2c2.9,3.1,5.5,6.5,7.8,10.2
	c1.8,2.9,3.1,6.2,3.9,9.6c0.8,3.4,1,7,1,10.7c0,4.7-0.8,9.1-2.3,13.5c-1.3,3.9-3.4,7.3-6.2,10.4c-2.9,2.9-6.2,5.2-9.9,6.8
	c-3.9,1.6-8.3,2.3-12.5,2.3c-4.4,0-8.9-0.8-13-2.6c-3.9-1.6-7.3-4.2-10.2-7.3c-2.9-3.4-5.2-7-6.8-11.2c-1.6-4.7-2.6-9.6-2.6-14.6
	l18.5-3.4c0.5,13.5,5.2,20.3,13.8,20.3c3.4,0,6.5-1.3,8.6-3.9c2.3-2.9,3.4-6.8,3.1-10.4c0-5.2-2.1-10.2-5.2-14.1l-2.1-2.6l-2.6-2.6
	l-3.9-3.9l-6.5-6c-3.6-3.4-7.3-6.8-10.4-10.7c-2.6-2.9-4.9-6.2-6.8-9.6c-1.8-2.9-3.1-6-3.9-9.4s-1.3-6.8-1.3-10.2
	c-0.5-8.6,2.6-16.9,8.3-23.4c6-6,14.1-9.1,22.4-8.9c17.4,0,27.1,10.4,29.4,31.5L358.6,125.8z"/>
<path class="st0" d="M431.7,110.9v45.3l20-45.3h17.7l-19.3,39.3l22.1,73.7H454l-14.3-52.3l-7.8,15.6v37h-17.2V110.9H432H431.7z"/>
<path class="st0" d="M535.3,223.9h-17.2v-45.8L497,110.9h17.7l12,44.3l11.7-44.3h17.2l-20.3,67.2v45.6V223.9z"/>
<path class="st0" d="M628,137c0-3.9,0-7,0-9.9s0-4.9-0.3-6.8c-0.3-2.9-1.3-5.5-3.4-7.6c-1.8-1.8-4.4-2.9-7-2.9
	c-5.5,0-8.9,2.9-10.2,8.9c-0.8,6.5-1,12.8-0.8,19.3v41.1c0,6.5,0,11.2,0.3,14.3c0,2.3,0.5,4.7,1,6.8c1.3,4.2,5.2,7.3,9.6,7
	c2.6,0,5.2-1,7-2.9c2.1-2.3,3.1-5.2,3.1-8.1c0.3-2.9,0.5-5.7,0.5-8.6c0-3.9,0-7.3,0-10.4h19.8v8.6c0,2.9,0,5.5-0.3,7.8
	c-0.3,2.1-0.5,4.2-0.8,6.2c-0.3,1.8-0.8,3.6-1.3,5.2c-0.8,1.8-1.6,3.4-2.3,4.9c-2.3,4.7-6,8.6-10.4,11.5c-4.7,2.9-10.2,4.2-15.6,4.2
	c-4.4,0-8.9-0.8-13-2.6c-3.9-1.6-7.6-4.4-10.2-7.8c-1.6-1.8-2.9-3.9-3.9-6s-1.8-4.4-2.3-6.8c-0.8-3.1-1-6-1.3-9.1
	c-0.3-3.4-0.3-7.8-0.3-13V136c0-4.9,0-9.4,0.3-13c0.3-3.1,0.5-6,1.3-9.1c0.5-2.3,1.3-4.7,2.3-6.8c1-2.1,2.3-4.2,3.9-6
	c2.6-3.4,6.2-6.2,10.2-7.8c4.2-1.8,8.6-2.6,13-2.6c5.5-0.3,10.7,1,15.4,3.6c4.4,2.6,8.1,6.2,10.7,10.7c1.6,3.1,2.9,6.2,3.6,9.6
	c0.8,4.4,1,8.9,1,13.3v8.1H628V137z"/>
<path class="st0" d="M702.8,198.9l-3.9,25H682l18.5-113h21.9l19.5,113h-17.4l-3.9-25h-18.2H702.8z M711.6,138l-6.5,45h13.3
	L711.6,138z"/>
<path class="st0" d="M830.6,223.9v-78.1l-16.1,78.1h-7.6l-17.2-78.1v78.1h-15.6v-113h22.4l14.1,68.7l12.8-68.7h22.9v113H830.6
	L830.6,223.9z"/>
<path class="st0" d="M915.2,139c0-3.6-1-7.3-2.9-10.7c-1.6-2.1-4.2-3.4-6.8-3.1c-2.6,0-5.2,1-7,3.1c-1.8,2.3-2.6,5.2-2.6,8.1
	c0,1.8,0.3,3.4,0.8,5.2s1.3,3.6,2.3,5.2c1.3,2.1,2.9,3.9,4.7,5.7l7.6,7.3c4.4,3.9,8.1,7.6,10.9,10.7c2.6,2.6,4.9,5.5,6.8,8.6
	c1.6,2.6,2.6,5.5,3.4,8.3s1,6,1,9.1c0,3.9-0.5,8.1-1.8,11.7c-1.3,3.4-3.1,6.5-5.5,9.1c-2.3,2.6-5.2,4.7-8.3,6
	c-3.4,1.6-7.3,2.1-10.9,2.1c-3.9,0-7.8-0.8-11.5-2.3c-3.4-1.6-6.2-3.6-8.6-6.2c-2.6-2.9-4.4-6-5.7-9.6c-1.6-3.9-2.3-8.3-2.3-12.5
	l16.1-2.9c0.5,11.7,4.4,17.7,12,17.7c2.9,0,5.7-1,7.6-3.4c2.1-2.6,2.9-5.7,2.9-8.9c0-4.4-1.6-8.9-4.4-12.2l-1.8-2.3l-2.1-2.3
	l-3.4-3.4l-5.7-5.2c-3.1-2.9-6.2-6-9.1-9.1c-2.3-2.6-4.2-5.5-6-8.3c-1.6-2.6-2.6-5.2-3.4-8.1s-1-6-1-8.9c-0.3-7.6,2.3-14.8,7.3-20.3
	c4.9-5.2,12-7.8,19.3-7.6c14.8,0,23.4,9.1,25.5,27.3L915.2,139z"/>
<polygon class="st0" points="1080,246.3 1318,242.4 1081.9,239.5 1324,147.9 1081.1,233 1201.6,138 1076.7,229.1 1136.8,137.7 
	1070.9,227.3 1119.1,2.6 1063.9,226.8 1026.1,83.8 1056.9,228.9 974.6,137.7 1051.4,233.6 957.1,195 1045.7,238.2 39.6,246.6 
	1042,247.6 813.4,337.4 1046.7,252.6 931.6,348.1 1050.6,257 984.5,364.5 1056.6,259.1 1041.8,336.7 1063.6,259.1 1086.8,345.5 
	1070.9,257 1148.8,347.3 1076.7,252.6 1211.3,309.6 "/>
<path class="st1" d="M79.5,262h4.4v27.9h-4.7l-11.3-20.1v20.1h-4.4V262h4.7l11.3,20.1V262z"/>
<path class="st1" d="M93,286.2h9.9v3.7H88.6v-22.4h14.4v3.7H93v5.5h8.2v3.7H93V286.2z"/>
<path class="st1" d="M116.2,278.2l7.3,11.7h-5.1l-5.1-8.2l-5.1,8.2h-5.1l7.6-11.5l-6.9-10.9h5.1l4.7,7.3l4.7-7.3h4.8L116.2,278.2z"
	/>
<path class="st1" d="M129.3,289.9v-18.6h-6.6v-3.7h17.9v3.7H134v18.6H129.3z"/>
<path class="st1" d="M169.3,276.2v13.3c-2,0.4-4,0.4-5.8,0.4c-3.1,0-5.5-0.4-7.6-1.5c-2-0.9-3.6-2.5-4.4-4.7s-1.5-4.8-1.5-8.2
	c0-4.8,1.1-8.7,3.3-10.9c2.2-2.2,5.5-3.6,9.8-3.6c2,0,3.7,0.3,5.5,0.7v4c-1.8-0.4-3.6-0.7-5.1-0.7c-2,0-3.7,0.3-4.8,0.9
	c-1.1,0.7-2.2,1.8-2.9,3.3c-0.7,1.5-0.9,3.6-0.9,6.2c0,2.5,0.3,4.4,0.9,6c0.6,1.5,1.5,2.6,2.6,3.3c1.1,0.7,2.6,0.9,4.7,0.9
	c0.7,0,1.4,0,1.8,0v-9.8h4.4V276.2L169.3,276.2z"/>
<path class="st1" d="M178.2,286.2h9.9v3.7h-14.5v-22.4H188v3.7H178v5.5h8.2v3.7H178v5.5L178.2,286.2L178.2,286.2z"/>
<path class="st1" d="M205,267.3h4.2v22.4h-4.7l-9.1-15.3v15.3h-4.2v-22.4h4.7l9.1,15V267.3z"/>
<path class="st1" d="M218.5,286.2h9.9v3.7h-14.6v-22.4h14.4v3.7h-9.9v5.5h8.2v3.7h-8.2v5.5L218.5,286.2L218.5,286.2z"/>
<path class="st1" d="M244.6,289.9l-5.5-8.4h-0.4c-0.7,0-1.5,0-2.2,0v8.4h-4.7v-22.1c2.2-0.4,4.4-0.7,6.5-0.7c3.1,0,5.5,0.7,7.1,1.8
	c1.5,1.1,2.5,3.1,2.5,5.3c0,1.5-0.4,2.9-1.1,4c-0.9,1.1-2,2-3.3,2.5l6.2,9.1h-4.8L244.6,289.9L244.6,289.9z M236.4,277.9
	c0.7,0,1.4,0,2,0c1.8,0,3.1-0.3,3.7-0.9c0.9-0.7,1.4-1.5,1.4-2.9c0-1.4-0.4-2.2-1.1-2.9s-2-0.9-3.6-0.9c-0.9,0-1.5,0-2.5,0.3
	L236.4,277.9L236.4,277.9z"/>
<path class="st1" d="M264.1,289.9l-1.8-6h-7.6l-1.8,6h-4.4l6.6-22.4h6.9l6.6,22.4H264.1z M255.9,280.1h5.5l-2.6-9.8L255.9,280.1z"/>
<path class="st1" d="M273,289.9v-18.6h-6.6v-3.7h17.9v3.7h-6.6v18.6H273z"/>
<path class="st1" d="M286.7,289.9v-22.4h4.7v22.4H286.7z"/>
<path class="st1" d="M297.5,287.3c-1.8-1.8-2.5-4.7-2.5-8.7s0.9-6.9,2.5-8.7c1.8-1.8,4-2.9,7.1-2.9c2.9,0,5.3,0.9,7.1,2.9
	c1.8,1.8,2.5,4.8,2.5,8.7c0,4-0.9,6.9-2.5,8.7c-1.8,1.8-4,2.9-7.1,2.9C301.5,290.2,299.2,289.2,297.5,287.3z M308.2,284.6
	c0.9-1.1,1.4-3.1,1.4-6c0-2-0.3-3.6-0.7-4.7c-0.4-1.1-0.9-2-1.5-2.5c-0.7-0.4-1.5-0.7-2.6-0.7c-1.5,0-2.9,0.7-3.6,1.8
	c-0.9,1.1-1.1,3.1-1.1,6c0,2,0.3,3.6,0.7,4.7c0.4,1.1,0.9,2,1.5,2.5c0.7,0.4,1.5,0.7,2.6,0.7C306.1,286.3,307.2,285.9,308.2,284.6z"
	/>
<path class="st1" d="M331.4,267.3h4.2v22.4h-4.7l-9.1-15.3v15.3h-4.2v-22.4h4.7l9.1,15V267.3z"/>
<path class="st1" d="M368.8,262h5.5v27.9h-4.2v-21.3l-6.9,17.3h-3.7l-6.9-16.8v20.8h-4.2V262h5.8l7.6,18.8L368.8,262z"/>
<path class="st1" d="M383.8,286.2h9.9v3.7h-14.6v-22.4h14.4v3.7h-9.9v5.5h8.2v3.7h-8.2v5.5L383.8,286.2L383.8,286.2z"/>
<path class="st1" d="M401.3,289.9v-18.6h-6.6v-3.7h17.9v3.7H406v18.6H401.3z"/>
<path class="st1" d="M419.5,286.2h9.9v3.7h-14.6v-22.4h14.4v3.7h-9.9v5.5h8.2v3.7h-8.2v5.5L419.5,286.2L419.5,286.2z"/>
<path class="st1" d="M434.1,287.3c-1.8-1.8-2.5-4.7-2.5-8.7s0.9-6.9,2.5-8.7c1.8-1.8,4-2.9,7.1-2.9c2.9,0,5.3,0.9,7.1,2.9
	c1.8,1.8,2.5,4.8,2.5,8.7c0,4-0.9,6.9-2.5,8.7c-1.8,1.8-4,2.9-7.1,2.9C438.1,290.2,435.9,289.2,434.1,287.3z M444.7,284.6
	c0.9-1.1,1.4-3.1,1.4-6c0-2-0.3-3.6-0.7-4.7c-0.4-1.1-0.9-2-1.5-2.5c-0.7-0.4-1.5-0.7-2.6-0.7c-1.5,0-2.9,0.7-3.6,1.8
	c-0.9,1.1-1.1,3.1-1.1,6c0,2,0.3,3.6,0.7,4.7c0.4,1.1,0.9,2,1.5,2.5c0.7,0.4,1.5,0.7,2.6,0.7C442.7,286.3,443.9,285.9,444.7,284.6z"
	/>
<path class="st1" d="M467.1,289.9l-5.5-8.4h-0.4c-0.7,0-1.5,0-2.2,0v8.4h-4.7v-22.1c2.2-0.4,4.4-0.7,6.5-0.7c3.1,0,5.5,0.7,7.1,1.8
	c1.5,1.1,2.5,3.1,2.5,5.3c0,1.5-0.4,2.9-1.1,4c-0.9,1.1-2,2-3.3,2.5l6.2,9.1h-4.8L467.1,289.9L467.1,289.9z M458.9,277.9
	c0.7,0,1.4,0,2,0c1.8,0,3.1-0.3,3.7-0.9c0.9-0.7,1.4-1.5,1.4-2.9c0-1.4-0.4-2.2-1.1-2.9c-0.7-0.7-2-0.9-3.6-0.9
	c-0.9,0-1.5,0-2.5,0.3L458.9,277.9L458.9,277.9z"/>
<path class="st1" d="M484.7,286.9c-2-2.2-3.1-5.8-3.1-10.9c0-4.8,1.1-8.7,3.1-10.9s5.1-3.6,9.1-3.6c1.8,0,3.6,0.3,5.1,0.7v4
	c-1.5-0.4-3.1-0.7-4.8-0.7s-3.1,0.3-4.4,0.9c-1.1,0.7-2,1.8-2.6,3.3s-0.9,3.6-0.9,6.2c0,2.6,0.3,4.7,0.9,6.2
	c0.7,1.5,1.4,2.6,2.5,3.3c1.1,0.7,2.6,0.9,4.2,0.9c1.4,0,3.1-0.3,4.8-0.9v4c-0.7,0.3-1.5,0.4-2.6,0.7c-1.1,0.3-2,0.3-2.9,0.3
	C489.8,290.2,487,289.1,484.7,286.9z"/>
<path class="st1" d="M515.5,289.9l-1.8-6h-7.6l-1.8,6H500l6.6-22.4h6.9l6.6,22.4H515.5z M507.6,280.1h5.5l-2.6-9.8L507.6,280.1z"/>
<path class="st1" d="M540.1,267.3h5.5v22.4h-4.2v-16.2l-5.5,12.8h-3.6l-5.5-12.6v15.7h-4.2v-22.4h5.5l6,14.4L540.1,267.3z"/>
<path class="st1" d="M555.1,286.2h9.9v3.7h-14.6v-22.4h14.4v3.7h-9.9v5.5h8.2v3.7h-8.2v5.5L555.1,286.2L555.1,286.2z"/>
<path class="st1" d="M581.1,289.9l-5.5-8.4h-0.4c-0.7,0-1.5,0-2.2,0v8.4h-4.7v-22.1c2.2-0.4,4.4-0.7,6.5-0.7c3.1,0,5.5,0.7,7.1,1.8
	c1.5,1.1,2.5,3.1,2.5,5.3c0,1.5-0.4,2.9-1.1,4c-0.9,1.1-2,2-3.3,2.5l6.2,9.1h-4.8L581.1,289.9L581.1,289.9z M572.9,277.9
	c0.7,0,1.4,0,2,0c1.8,0,3.1-0.3,3.7-0.9c0.9-0.7,1.4-1.5,1.4-2.9c0-1.4-0.4-2.2-1.1-2.9c-0.7-0.7-2-0.9-3.6-0.9
	c-0.9,0-1.5,0-2.5,0.3L572.9,277.9L572.9,277.9z"/>
<path class="st1" d="M600.5,289.9l-1.8-6h-7.6l-1.8,6h-4.3l6.6-22.4h6.9l6.6,22.4H600.5z M592.4,280.1h5.5l-2.6-9.8L592.4,280.1z"/>
<path class="st1" d="M617.8,289.9c-1.1-0.3-2.2-0.4-3.1-0.9v-4c2.2,0.7,4.2,1.1,6.2,1.1c1.8,0,3.1-0.4,3.7-1.1
	c0.9-0.7,1.4-1.5,1.4-2.9c0-0.7-0.3-1.4-0.4-1.8s-0.7-0.9-1.4-1.4c-0.7-0.4-1.4-0.7-2.5-1.1l-1.8-0.7c-4.2-1.4-6.2-4-6.2-7.7
	c0-1.8,0.4-3.1,1.1-4.4c0.7-1.4,1.8-2.2,3.3-2.9s3.3-0.9,5.5-0.9c0.9,0,2,0,2.9,0.3c0.9,0.3,1.8,0.3,2.5,0.4v4
	c-1.5-0.4-3.1-0.7-5.1-0.7c-3.7,0-5.5,1.4-5.5,3.7c0,0.7,0.3,1.4,0.4,1.8c0.3,0.4,0.7,0.9,1.1,1.4c0.4,0.4,1.4,0.7,2.2,1.1l1.8,0.7
	c2.2,0.7,3.7,1.8,4.8,2.9c1.1,1.4,1.5,2.9,1.5,5.1c0,1.8-0.4,3.1-1.1,4.4s-1.8,2.2-3.3,2.9c-1.5,0.7-3.1,0.9-5.3,0.9
	C620,290.2,618.9,290.2,617.8,289.9z"/>
<path class="st1" d="M650.1,267.3l-7.6,12.8v9.5h-4.7v-9.5l-7.6-12.8h4.8l5.1,8.8l5.1-8.8H650.1z"/>
<path class="st1" d="M652.8,289.9c-0.9-0.3-1.8-0.4-2.6-0.7v-3.7c2,0.7,3.7,0.9,5.5,0.9c1.4,0,2.5-0.3,3.1-0.7
	c0.7-0.4,0.9-1.1,0.9-2c0-0.4,0-0.9-0.3-1.4c-0.3-0.4-0.4-0.7-1.1-0.9c-0.4-0.3-1.1-0.4-2-0.9l-1.1-0.3c-2-0.4-3.3-1.4-4.2-2.5
	c-0.9-1.1-1.4-2.5-1.4-4c0-2.2,0.7-3.7,2.2-4.8c1.5-1.1,3.7-1.8,6.6-1.8c0.9,0,1.5,0,2.5,0.3c0.9,0,1.5,0.3,2.2,0.4v3.7
	c-1.4-0.4-2.9-0.4-4.2-0.4c-1.8,0-2.9,0.3-3.6,0.7c-0.7,0.4-1.1,1.1-1.1,2c0,0.4,0,0.9,0.3,1.4c0.3,0.5,0.4,0.7,0.9,0.9
	c0.4,0.2,1.1,0.4,2,0.7l1.1,0.4c2,0.4,3.3,1.4,4.4,2.5c0.9,1.1,1.4,2.5,1.4,4c0,1.4-0.4,2.6-1.1,3.6c-0.7,1.1-1.5,1.8-2.9,2.5
	c-1.4,0.7-2.9,0.9-4.7,0.9C654.8,290.2,653.9,290.2,652.8,289.9z"/>
<path class="st1" d="M670.9,289.9v-18.6h-6.6v-3.7H682v3.7h-6.6v18.6H670.9z"/>
<path class="st1" d="M689.3,286.2h9.9v3.7h-14.6v-22.4H699v3.7H689v5.5h8.2v3.7H689v5.5L689.3,286.2L689.3,286.2z"/>
<path class="st1" d="M720.1,267.3h5.5v22.4h-4.2v-16.2l-5.5,12.8h-3.6l-5.5-12.6v15.7h-4.2v-22.4h5.5l6,14.4L720.1,267.3z"/>
<path class="st1" d="M732.1,289.9c-0.9-0.3-1.8-0.4-2.6-0.7v-3.7c2,0.7,3.7,0.9,5.5,0.9c1.4,0,2.5-0.3,3.1-0.7
	c0.7-0.4,0.9-1.1,0.9-2c0-0.4,0-0.9-0.3-1.4c-0.3-0.5-0.4-0.7-1.1-0.9c-0.4-0.3-1.1-0.4-2-0.9l-1.1-0.3c-2-0.4-3.3-1.4-4.2-2.5
	c-0.9-1.1-1.4-2.5-1.4-4c0-2.2,0.7-3.7,2.2-4.8c1.5-1.1,3.7-1.8,6.6-1.8c0.9,0,1.5,0,2.5,0.3c0.9,0,1.5,0.3,2.2,0.4v3.7
	c-1.4-0.4-2.9-0.4-4.2-0.4c-1.8,0-2.9,0.3-3.6,0.7c-0.7,0.4-1.1,1.1-1.1,2c0,0.4,0,0.9,0.3,1.4c0.3,0.4,0.4,0.7,0.9,0.9
	c0.4,0.2,1.1,0.4,2,0.7l1.1,0.4c2,0.4,3.3,1.4,4.4,2.5c0.9,1.1,1.4,2.5,1.4,4c0,1.4-0.4,2.6-1.1,3.6c-0.7,1.1-1.5,1.8-2.9,2.5
	s-2.9,0.9-4.7,0.9C734,290.2,732.9,290.2,732.1,289.9z"/>
<path class="st1" d="M84.9,192.7l-4.4,28.6H61L82.3,90.9h25.5l22.7,130.4h-20l-4.4-28.6H85.2L84.9,192.7L84.9,192.7z M95.1,122.4
	l-7.6,52.1h15.4L95.1,122.4z"/>
<path class="st1" d="M211.2,221.3h-45.3v-113h17.2v97.1h28.1V221.3L211.2,221.3z"/>
<path class="st1" d="M286.2,221.3h-45v-113h17.2v97.1h27.9v15.9H286.2z"/>
<path class="st1" d="M356,123.2c-0.3-4.2-1.3-8.6-3.4-12.2c-1.8-2.6-4.7-3.9-7.8-3.6c-3.1-0.3-6,1-8.1,3.4c-2.1,2.6-3.1,6-2.9,9.4
	c0,2.1,0.3,4.2,0.8,6.2c0.8,2.1,1.6,4.2,2.9,6c1.6,2.3,3.4,4.4,5.2,6.5l8.6,8.3c4.9,4.7,9.1,8.9,12.5,12.2c2.9,3.1,5.5,6.5,7.8,10.2
	c1.8,2.9,3.1,6.2,3.9,9.6c0.8,3.4,1,7,1,10.7c0,4.7-0.8,9.1-2.3,13.5c-1.3,3.9-3.4,7.3-6.2,10.4c-2.9,2.9-6.2,5.2-9.9,6.8
	c-3.9,1.6-8.3,2.3-12.5,2.3c-4.4,0-8.9-0.8-13-2.6c-3.9-1.6-7.3-4.2-10.2-7.3c-2.9-3.4-5.2-7-6.8-11.2c-1.6-4.7-2.6-9.6-2.6-14.6
	l18.5-3.4c0.5,13.5,5.2,20.3,13.8,20.3c3.4,0,6.5-1.3,8.6-3.9c2.3-2.9,3.4-6.8,3.1-10.4c0-5.2-2.1-10.2-5.2-14.1l-2.1-2.6l-2.6-2.6
	l-3.9-3.9l-6.5-6c-3.6-3.4-7.3-6.8-10.4-10.7c-2.6-2.9-4.9-6.2-6.8-9.6c-1.8-2.9-3.1-6-3.9-9.4c-0.8-3.4-1.3-6.8-1.3-10.2
	c-0.5-8.6,2.6-16.9,8.3-23.4c6-6,14.1-9.1,22.4-8.9c17.4,0,27.1,10.4,29.4,31.5L356,123.2z"/>
<path class="st1" d="M429.1,108.3v45.3l20-45.3h17.7l-19.3,39.3l22.1,73.7h-18.2L437.2,169l-7.8,15.6v37h-17.2V108.3h17.2H429.1z"/>
<path class="st1" d="M532.7,221.3h-17.2v-45.8l-21.1-67.2h17.7l12,44.3l11.7-44.3H553l-20.3,67.2v45.6V221.3z"/>
<path class="st1" d="M625.4,134.3c0-3.9,0-7,0-9.9s0-4.9-0.3-6.8c-0.3-2.9-1.3-5.5-3.4-7.6c-1.8-1.8-4.4-2.9-7-2.9
	c-5.5,0-8.9,2.9-10.2,8.9c-0.8,6.5-1,12.8-0.8,19.3v41.1c0,6.5,0,11.2,0.3,14.3c0,2.3,0.5,4.7,1,6.8c1.3,4.2,5.2,7.3,9.6,7
	c2.6,0,5.2-1,7-2.9c2.1-2.3,3.1-5.2,3.1-8.1c0.3-2.9,0.5-5.7,0.5-8.6c0-3.9,0-7.3,0-10.4H645v8.6c0,2.9,0,5.5-0.3,7.8
	c-0.3,2.1-0.5,4.2-0.8,6.2c-0.3,1.8-0.8,3.6-1.3,5.2c-0.8,1.8-1.6,3.4-2.3,4.9c-2.3,4.7-6,8.6-10.4,11.5c-4.7,2.9-10.2,4.2-15.6,4.2
	c-4.4,0-8.9-0.8-13-2.6c-3.9-1.6-7.6-4.4-10.2-7.8c-1.6-1.8-2.9-3.9-3.9-6s-1.8-4.4-2.3-6.8c-0.8-3.1-1-6-1.3-9.1
	c-0.3-3.4-0.3-7.8-0.3-13v-44.3c0-4.9,0-9.4,0.3-13c0.3-3.1,0.5-6,1.3-9.1c0.5-2.3,1.3-4.7,2.3-6.8c1-2.1,2.3-4.2,3.9-6
	c2.6-3.4,6.2-6.2,10.2-7.8c4.2-1.8,8.6-2.6,13-2.6c5.5-0.3,10.7,1,15.4,3.6c4.4,2.6,8.1,6.2,10.7,10.7c1.6,3.1,2.9,6.2,3.6,9.6
	c0.8,4.4,1,8.9,1,13.3v8.1h-19.8L625.4,134.3z"/>
<path class="st1" d="M700.2,196.3l-3.9,25h-16.9l18.5-113h21.9l19.5,113h-17.4l-3.9-25h-18.2H700.2z M709,135.4l-6.5,45h13.3
	L709,135.4z"/>
<path class="st1" d="M828,221.3v-78.1l-16.1,78.1h-7.6l-17.2-78.1v78.1h-15.6v-113h22.4L808,177l12.8-68.7h22.9v113L828,221.3
	L828,221.3z"/>
<path class="st1" d="M912.6,136.4c0-3.6-1-7.3-2.9-10.7c-1.6-2.1-4.2-3.4-6.8-3.1c-2.6,0-5.2,1-7,3.1c-1.8,2.3-2.6,5.2-2.6,8.1
	c0,1.8,0.3,3.4,0.8,5.2s1.3,3.6,2.3,5.2c1.3,2.1,2.9,3.9,4.7,5.7l7.6,7.3c4.4,3.9,8.1,7.6,10.9,10.7c2.6,2.6,4.9,5.5,6.8,8.6
	c1.6,2.6,2.6,5.5,3.4,8.3c0.8,2.9,1,6,1,9.1c0,3.9-0.5,8.1-1.8,11.7c-1.3,3.4-3.1,6.5-5.5,9.1c-2.3,2.6-5.2,4.7-8.3,6
	c-3.4,1.6-7.3,2.1-10.9,2.1c-3.9,0-7.8-0.8-11.5-2.3c-3.4-1.6-6.2-3.6-8.6-6.2c-2.6-2.9-4.4-6-5.7-9.6c-1.6-3.9-2.3-8.3-2.3-12.5
	l16.1-2.9c0.5,11.7,4.4,17.7,12,17.7c2.9,0,5.7-1,7.6-3.4c2.1-2.6,2.9-5.7,2.9-8.9c0-4.4-1.6-8.9-4.4-12.2l-1.8-2.3l-2.1-2.3
	l-3.4-3.4l-5.7-5.2c-3.1-2.9-6.2-6-9.1-9.1c-2.3-2.6-4.2-5.5-6-8.3c-1.6-2.6-2.6-5.2-3.4-8.1s-1-6-1-8.9c-0.3-7.6,2.3-14.8,7.3-20.3
	c4.9-5.2,12-7.8,19.3-7.6c14.8,0,23.4,9.1,25.5,27.3L912.6,136.4z"/>
<polygon class="st2" points="1077.4,243.7 1315.4,239.8 1079.3,236.9 1321.4,145.3 1078.5,230.4 1199,135.4 1074,226.5 
	1134.2,135.1 1068.3,224.7 1116.5,0 1061.3,224.2 1023.5,81.2 1054.3,226.3 972,135.1 1048.8,230.9 954.5,192.4 1043.1,235.6 
	37,244 1039.4,245 810.8,334.8 1044.1,250 929,345.5 1048,254.4 981.9,361.9 1054,256.5 1039.2,334.1 1061,256.5 1084.2,342.9 
	1068.3,254.4 1146.2,344.7 1074,250 1208.7,307 "/>
</svg>
