<?xml version="1.0" encoding="utf-8"?>
<!-- Generator: Adobe Illustrator 19.2.1, SVG Export Plug-In . SVG Version: 6.00 Build 0)  -->
<svg version="1.1" id="Calque_1" xmlns="http://www.w3.org/2000/svg" xmlns:xlink="http://www.w3.org/1999/xlink" x="0px" y="0px"
	 viewBox="0 0 190 48" style="enable-background:new 0 0 190 48;" xml:space="preserve">
<style type="text/css">
	.st0{fill:#FFFFFF;}
	.st1{fill:#FFCA00;}
</style>
<path class="st0" d="M10.9,28.7L10,34.2H6.2l4.2-25.4h5l4.4,25.4h-3.9L15,28.7H10.9L10.9,28.7z M12.9,15l-1.5,10.1h3L12.9,15z"/>
<path class="st0" d="M35.5,34.2h-8.8v-22H30v18.9h5.5V34.2L35.5,34.2z"/>
<path class="st0" d="M50.1,34.2h-8.8v-22h3.3v18.9H50L50.1,34.2L50.1,34.2z"/>
<path class="st0" d="M63.7,15.1c0-0.8-0.3-1.6-0.7-2.4c-0.3-0.5-0.9-0.8-1.5-0.7c-0.6,0-1.2,0.2-1.6,0.7c-0.4,0.5-0.6,1.2-0.6,1.8
	c0,0.4,0,0.8,0.2,1.2c0.1,0.4,0.3,0.8,0.6,1.2c0.3,0.5,0.6,0.9,1,1.3l1.7,1.6c1,0.9,1.8,1.7,2.4,2.4c0.6,0.6,1.1,1.3,1.5,2
	c0.4,0.6,0.6,1.2,0.8,1.9c0.1,0.7,0.2,1.4,0.2,2.1c0,0.9-0.2,1.8-0.5,2.6c-0.3,0.8-0.7,1.4-1.2,2c-0.5,0.6-1.2,1-1.9,1.3
	c-0.8,0.3-1.6,0.5-2.4,0.5c-0.9,0-1.7-0.2-2.5-0.5s-1.4-0.8-2-1.4c-0.6-0.6-1-1.4-1.3-2.2c-0.3-0.9-0.5-1.9-0.5-2.8L59,27
	c0.1,2.6,1,4,2.7,4c0.6,0,1.3-0.3,1.7-0.8c0.4-0.6,0.7-1.3,0.6-2c0-1-0.4-2-1-2.7L62.6,25L62,24.3l-0.8-0.8l-1.3-1.2
	c-0.7-0.6-1.4-1.3-2-2.1c-0.5-0.6-0.9-1.2-1.3-1.9c-0.3-0.6-0.6-1.2-0.8-1.8c-0.2-0.6-0.2-1.3-0.3-2c-0.1-1.7,0.5-3.3,1.6-4.6
	c1.1-1.2,2.7-1.8,4.4-1.7c3.4,0,5.3,2,5.7,6.1L63.7,15.1z"/>
<path class="st0" d="M77.9,12.2V21l3.9-8.8h3.4l-3.8,7.7l4.3,14.4h-3.6L79.5,24L78,27v7.2h-3.3v-22H77.9L77.9,12.2z"/>
<path class="st0" d="M98.1,34.2h-3.3v-8.9l-4.1-13.1h3.4l2.3,8.6l2.3-8.6h3.3l-4,13.1L98.1,34.2L98.1,34.2z"/>
<path class="st0" d="M116.2,17.3c0-0.7,0-1.4,0-1.9s0-1-0.1-1.3c0-0.6-0.3-1.1-0.7-1.5c-0.4-0.4-0.9-0.6-1.4-0.6c-1,0-1.7,0.6-2,1.7
	c-0.1,1.2-0.2,2.5-0.2,3.8v8c0,1.3,0,2.2,0.1,2.8c0,0.4,0.1,0.9,0.2,1.3c0.2,0.8,1,1.4,1.9,1.4c0.5,0,1-0.2,1.4-0.6s0.6-1,0.6-1.6
	c0.1-0.6,0.1-1.1,0.1-1.7c0-0.7,0-1.4,0-2h3.9v1.7c0,0.6,0,1.1-0.1,1.5c0,0.4-0.1,0.8-0.2,1.2c-0.1,0.3-0.1,0.7-0.3,1
	c-0.1,0.3-0.3,0.7-0.5,1c-0.4,0.9-1.2,1.7-2,2.2c-0.9,0.5-2,0.8-3,0.8c-0.9,0-1.7-0.2-2.5-0.5s-1.5-0.9-2-1.5
	c-0.3-0.4-0.5-0.8-0.8-1.2c-0.2-0.4-0.4-0.9-0.5-1.3c-0.1-0.6-0.2-1.2-0.3-1.8c0-0.7-0.1-1.5-0.1-2.5v-8.6c0-1,0-1.8,0.1-2.5
	c0-0.6,0.1-1.2,0.3-1.8c0.1-0.5,0.2-0.9,0.5-1.3c0.2-0.4,0.5-0.8,0.8-1.2c0.5-0.7,1.2-1.2,2-1.5s1.7-0.5,2.5-0.5c1,0,2.1,0.2,3,0.7
	s1.6,1.2,2.1,2.1c0.3,0.6,0.6,1.2,0.7,1.9c0.1,0.9,0.2,1.7,0.2,2.6v1.6H116L116.2,17.3z"/>
<path class="st0" d="M130.7,29.4l-0.8,4.9h-3.3l3.6-22h4.3l3.8,22h-3.4l-0.8-4.9h-3.6H130.7z M132.5,17.5l-1.3,8.8h2.6L132.5,17.5z"
	/>
<path class="st0" d="M155.6,34.2V19l-3.1,15.2H151L147.7,19v15.2h-3v-22h4.4l2.7,13.4l2.5-13.4h4.5v22H155.6L155.6,34.2z"/>
<path class="st0" d="M172.1,17.7c0-0.7-0.2-1.4-0.6-2.1c-0.3-0.4-0.8-0.6-1.3-0.6s-1,0.2-1.4,0.6c-0.4,0.4-0.5,1-0.5,1.6
	c0,0.3,0.1,0.7,0.2,1c0.1,0.4,0.3,0.7,0.5,1c0.3,0.4,0.6,0.8,0.9,1.1l1.5,1.4c0.8,0.8,1.6,1.5,2.1,2.1c0.5,0.5,0.9,1.1,1.3,1.7
	c0.3,0.5,0.5,1.1,0.7,1.6c0.1,0.6,0.2,1.2,0.2,1.8c0,0.8-0.1,1.5-0.4,2.3c-0.2,0.7-0.6,1.3-1.1,1.8s-1,0.9-1.6,1.2
	c-0.7,0.3-1.4,0.4-2.1,0.4c-0.8,0-1.5-0.1-2.2-0.5c-0.6-0.3-1.2-0.7-1.7-1.2s-0.9-1.2-1.1-1.9c-0.3-0.8-0.4-1.6-0.5-2.4l3.1-0.6
	c0.1,2.3,0.9,3.4,2.3,3.4c0.6,0,1.1-0.2,1.5-0.7s0.6-1.1,0.6-1.7c0-0.9-0.3-1.7-0.9-2.4l-0.4-0.5l-0.4-0.5l-0.7-0.7l-1.1-1
	c-0.6-0.6-1.2-1.1-1.8-1.8c-0.4-0.5-0.8-1-1.2-1.6c-0.3-0.5-0.5-1-0.7-1.6c-0.1-0.6-0.2-1.1-0.2-1.7c-0.1-1.5,0.4-2.9,1.4-4
	c1-1,2.4-1.5,3.8-1.5c2.9,0,4.6,1.8,5,5.3L172.1,17.7z"/>
<polygon class="st1" points="186,39.3 189.4,38.9 186.3,38.6 189.2,37.4 186.2,37.9 189.1,35.4 185.5,37.4 189.1,33.3 184.7,37.2 
	189.3,21 183.7,37.2 178.3,21.6 182.7,37.4 176.2,31.9 181.9,37.9 173.1,35.2 181.1,38.4 2.5,39.3 180.6,39.5 154.2,47.4 181.3,40 
	169.5,47.4 181.8,40.5 176.7,46.8 182.7,40.7 181.2,46.6 183.7,40.7 186,47.4 184.7,40.5 189.6,44.8 185.5,40 189.1,40.8 "/>
</svg>
