<svg xmlns="http://www.w3.org/2000/svg" viewBox="0 0 493.3 139"><title>allskycams</title><path d="M90.7,621.7l-1.7,11H81.5l8.2-50.1h9.8l8.7,50.1h-7.7l-1.7-11h-8Zm3.9-27-2.9,20h5.9Z" transform="translate(-72.3 -547.7)" style="fill:#fff"/><path d="M139.2,632.7H121.8V589.3h6.6v37.3h10.8v6.1Z" transform="translate(-72.3 -547.7)" style="fill:#fff"/><path d="M168,632.7H150.7V589.3h6.6v37.3H168v6.1Z" transform="translate(-72.3 -547.7)" style="fill:#fff"/><path d="M194.8,595a10.9,10.9,0,0,0-1.3-4.7,3.4,3.4,0,0,0-3-1.4,3.8,3.8,0,0,0-3.1,1.3,5.4,5.4,0,0,0-1.1,3.6,8.8,8.8,0,0,0,.3,2.4,8.7,8.7,0,0,0,1.1,2.3,16.6,16.6,0,0,0,2,2.5l3.3,3.2q2.9,2.7,4.8,4.7a23.2,23.2,0,0,1,3,3.9,12.7,12.7,0,0,1,1.5,3.7,18.7,18.7,0,0,1,.4,4.1,15.1,15.1,0,0,1-.9,5.2,11.7,11.7,0,0,1-2.4,4,11.1,11.1,0,0,1-3.8,2.6,12.1,12.1,0,0,1-4.8.9,12.4,12.4,0,0,1-5-1,11.2,11.2,0,0,1-3.9-2.8,13.2,13.2,0,0,1-2.6-4.3,16.8,16.8,0,0,1-1-5.6l7.1-1.3q0.3,7.8,5.3,7.8a4.1,4.1,0,0,0,3.3-1.5,6,6,0,0,0,1.2-4,8.9,8.9,0,0,0-2-5.4l-0.8-1-1-1-1.5-1.5-2.5-2.3a43.1,43.1,0,0,1-4-4.1,24.2,24.2,0,0,1-2.6-3.7,14.4,14.4,0,0,1-1.5-3.6,16.5,16.5,0,0,1-.5-3.9,12.5,12.5,0,0,1,3.2-9,11.3,11.3,0,0,1,8.6-3.4q10,0,11.3,12.1Z" transform="translate(-72.3 -547.7)" style="fill:#fff"/><path d="M222.9,589.3v17.4l7.7-17.4h6.8L230,604.4l8.5,28.3h-7l-5.5-20.1-3,6v14.2h-6.6V589.3h6.6Z" transform="translate(-72.3 -547.7)" style="fill:#fff"/><path d="M262.7,632.7h-6.6V615.1L248,589.3h6.8l4.6,17,4.5-17h6.6l-7.8,25.8v17.5Z" transform="translate(-72.3 -547.7)" style="fill:#fff"/><path d="M298.3,599.3q0-2.2,0-3.8t-0.1-2.6a4.8,4.8,0,0,0-1.3-2.9,3.7,3.7,0,0,0-2.7-1.1q-3.1,0-3.9,3.4a49.4,49.4,0,0,0-.3,7.4v15.8q0,3.7.1,5.5a10,10,0,0,0,.4,2.6,3.7,3.7,0,0,0,3.7,2.7,3.7,3.7,0,0,0,2.7-1.1,4.8,4.8,0,0,0,1.2-3.1,29.7,29.7,0,0,0,.2-3.3q0-2.2,0-4h7.6v3.3q0,1.7-.1,3a21.5,21.5,0,0,1-.3,2.4,11.1,11.1,0,0,1-.5,2,16.1,16.1,0,0,1-.9,1.9,10.5,10.5,0,0,1-4,4.4,11.4,11.4,0,0,1-6,1.6,12.4,12.4,0,0,1-5-1,9.6,9.6,0,0,1-3.9-3,14.5,14.5,0,0,1-1.5-2.3,10.4,10.4,0,0,1-.9-2.6,20.6,20.6,0,0,1-.5-3.5q-0.1-2-.1-5v-17q0-2.9.1-5a20.8,20.8,0,0,1,.5-3.5,10.5,10.5,0,0,1,.9-2.6,14.6,14.6,0,0,1,1.5-2.3,9.6,9.6,0,0,1,3.9-3,12.4,12.4,0,0,1,5-1,11.9,11.9,0,0,1,5.9,1.4,10.5,10.5,0,0,1,4.1,4.1,13.5,13.5,0,0,1,1.4,3.7,27.2,27.2,0,0,1,.4,5.1v3.1h-7.6Z" transform="translate(-72.3 -547.7)" style="fill:#fff"/><path d="M327,623.1l-1.5,9.6H319l7.1-43.4h8.4l7.5,43.4h-6.7l-1.5-9.6h-7Zm3.4-23.4L327.9,617h5.1Z" transform="translate(-72.3 -547.7)" style="fill:#fff"/><path d="M376.1,632.7v-30l-6.2,30h-2.9l-6.6-30v30h-6V589.3H363l5.4,26.4,4.9-26.4h8.8v43.4h-6Z" transform="translate(-72.3 -547.7)" style="fill:#fff"/><path d="M408.6,600.1a9.4,9.4,0,0,0-1.1-4.1,3,3,0,0,0-2.6-1.2,3.3,3.3,0,0,0-2.7,1.2,4.7,4.7,0,0,0-1,3.1,7.7,7.7,0,0,0,.3,2,7.5,7.5,0,0,0,.9,2,14.3,14.3,0,0,0,1.8,2.2l2.9,2.8q2.5,2.3,4.2,4.1a20.1,20.1,0,0,1,2.6,3.3,11,11,0,0,1,1.3,3.2,16.1,16.1,0,0,1,.4,3.5,13.1,13.1,0,0,1-.7,4.5,10.2,10.2,0,0,1-2.1,3.5,9.6,9.6,0,0,1-3.2,2.3,10.5,10.5,0,0,1-4.2.8,10.8,10.8,0,0,1-4.4-.9,9.7,9.7,0,0,1-3.3-2.4,11.5,11.5,0,0,1-2.2-3.7,14.6,14.6,0,0,1-.9-4.8l6.2-1.1q0.3,6.8,4.6,6.8a3.6,3.6,0,0,0,2.9-1.3,5.2,5.2,0,0,0,1.1-3.4,7.7,7.7,0,0,0-1.7-4.7l-0.7-.9-0.8-.9-1.3-1.3-2.2-2a37.3,37.3,0,0,1-3.5-3.5,21,21,0,0,1-2.3-3.2,12.5,12.5,0,0,1-1.3-3.1,14.3,14.3,0,0,1-.4-3.4,10.9,10.9,0,0,1,2.8-7.8,9.8,9.8,0,0,1,7.4-2.9q8.6,0,9.8,10.5Z" transform="translate(-72.3 -547.7)" style="fill:#fff"/><polygon points="399.6 93.6 491 92.1 400.3 91 493.3 55.8 400 88.5 446.3 52 398.3 87 421.4 51.9 396.1 86.3 414.6 0 393.4 86.1 378.9 31.2 390.7 86.9 359.1 51.9 388.6 88.7 352.4 73.9 386.4 90.5 0 93.7 385 94.1 297.2 128.6 386.8 96 342.6 132.7 388.3 97.7 362.9 139 390.6 98.5 384.9 128.3 393.3 98.5 402.2 131.7 396.1 97.7 426 132.4 398.3 96 450 117.9 399.6 93.6" style="fill:#fff"/></svg>