<svg version="1" xmlns="http://www.w3.org/2000/svg" width="346.667" height="346.667" viewBox="0 0 260.000000 260.000000"><path d="M197.1 3.7c-.6 2.1-8 32.1-16.6 66.8-8.5 34.6-15.8 63.8-16.2 64.7-.5 1.2-7.2-22.3-18.8-66.3-9.9-37.4-18.1-67.6-18.2-67.2-.2.4 6.2 31.4 14.2 68.7 7.9 37.4 14.3 68.1 14.1 68.3-.2.2-18.7-19.9-41.1-44.7-22.4-24.7-40.9-45-41.1-45-.2 0 53 66.6 73.4 91.8l3.5 4.3-4.9-1.9c-2.7-1.1-23.8-9.7-46.8-19.1-23.1-9.4-42-17-42.2-16.8-.1.1 19.3 9.6 43.1 21.2 23.8 11.5 43.1 21.2 42.9 21.4-.4.5-107.1 3-129.1 3-12.1.1-13.3.3-13.3 1.9 0 1.7 3.8 1.9 66.7 3.5 36.8 1 68.2 1.8 69.8 1.8h3l-2.5 1.3c-1.4.7-32.8 13.1-69.7 27.6C24.8 205.6 0 215.8 0 216.7c0 .7.3 1.3.6 1.3.7 0 141.6-51 142.7-51.7 3.8-2.3-6.8 6.8-54 45.8-48.6 40-61.8 51.1-56.3 47.2 1.3-.9 92-70.1 110.4-84.2 3.3-2.5 5.7-4.1 5.4-3.5-.3.5-12.6 20.4-27.3 44.2-14.6 23.9-26.4 43.6-26.2 43.9.7.6 2.3-1.7 31.7-44.7 14.4-21.2 26.9-39.1 27.6-39.9 1.1-1.2 1.2-1.1.9.5-1.9 8.2-13.5 70.7-13.2 71 .3.3 11-37 19.8-69 .8-2.8 1.3-3.6 1.9-2.5.4.7 5.6 19.7 11.6 42.1 5.9 22.4 11 40.6 11.1 40.4.2-.2-3-19.1-7.2-42.1s-7.4-42.2-7.2-42.8c.1-.5 17 18.5 37.6 42.2 20.5 23.7 37.5 43.1 37.8 43.1.2 0-.9-1.7-2.5-3.8-1.6-2-17-22.1-34.2-44.7-17.2-22.6-31.7-41.6-32.3-42.3-1.3-1.6-3.7-2.6 42.1 16.8 21.1 8.9 38.6 15.9 38.9 15.6 1.7-1.7-4-4.8-39-21.6l-38.5-18.5 14.7-.6c8-.4 25.5-.7 38.9-.8l24.2-.1v-2.5c0-1.4-.1-2.6-.2-2.6-.2-.1-17.4-.5-38.2-.8l-38-.6 38.2-14.4c35.4-13.3 38.2-14.6 38.2-16.7 0-1.3-.3-2.4-.7-2.4-.5 0-17.4 5.9-37.8 13-20.3 7.1-37 12.8-37.2 12.6-.1-.1 16.8-13.7 37.7-30.1 20.9-16.4 38-30.5 38-31.2 0-.9-.5-1.1-1.2-.7-1.4.8-77.3 55.9-79.7 57.8-1.6 1.3 2.5-5.2 15.9-25.4 18-26.9 40.9-62 40.6-62-.2 0-14.5 19.1-31.7 42.5-17.2 23.3-31.5 42.3-31.6 42.1-.2-.2 6.1-30.8 14.2-68C194.5 31.4 201 .8 201 .5c0-.3-.7-.5-1.5-.5s-1.8 1.6-2.4 3.7z"/></svg>